<svg xmlns="http://www.w3.org/2000/svg" xmlns:xlink="http://www.w3.org/1999/xlink" width="1024" height="1024" viewBox="0 0 1024 1024">
  <defs>
    <clipPath id="clip-path">
      <rect id="矩形_113" data-name="矩形 113" width="1024" height="1024" transform="translate(-19034 -19671)" fill="#11c6be" stroke="#707070" stroke-width="1"/>
    </clipPath>
    <linearGradient id="linear-gradient" x1="0.5" y1="1" x2="0.5" y2="-2.139" gradientUnits="objectBoundingBox">
      <stop offset="0" stop-color="#fff" stop-opacity="0"/>
      <stop offset="1" stop-color="#fff"/>
    </linearGradient>
    <linearGradient id="linear-gradient-4" x2="1" y2="1.109" gradientUnits="objectBoundingBox">
      <stop offset="0" stop-color="#fff"/>
      <stop offset="1" stop-color="#fff" stop-opacity="0"/>
    </linearGradient>
    <linearGradient id="linear-gradient-5" x1="1" x2="0" y2="1.109" xlink:href="#linear-gradient-4"/>
    <linearGradient id="linear-gradient-6" x1="0.229" y1="-0.042" x2="1.015" y2="1.334" gradientUnits="objectBoundingBox">
      <stop offset="0.081" stop-color="#ffce00"/>
      <stop offset="0.993" stop-color="#ff8300"/>
    </linearGradient>
    <clipPath id="clip-path-2">
      <rect id="矩形_114" data-name="矩形 114" width="1024" height="1024" transform="translate(2397.859 0.253)" fill="none"/>
    </clipPath>
  </defs>
  <g id="组_410" data-name="组 410" transform="translate(17757 19671)">
    <g id="组_409" data-name="组 409" transform="translate(1277)">
      <g id="矩形_112" data-name="矩形 112" transform="translate(-19034 -19671)" fill="#11c6be" stroke="#707070" stroke-width="1">
        <rect width="1024" height="1024" stroke="none"/>
        <rect x="0.5" y="0.5" width="1023" height="1023" fill="none"/>
      </g>
      <g id="蒙版组_20" data-name="蒙版组 20" clip-path="url(#clip-path)">
        <circle id="椭圆形" cx="138.5" cy="138.5" r="138.5" transform="translate(-18469 -19802)" fill="url(#linear-gradient)"/>
        <circle id="椭圆形备份_18" data-name="椭圆形备份 18" cx="61" cy="61" r="61" transform="translate(-18812 -19663)" opacity="0.676" fill="url(#linear-gradient)"/>
        <circle id="椭圆形备份_17" data-name="椭圆形备份 17" cx="108.5" cy="108.5" r="108.5" transform="translate(-19114 -19588)" opacity="0.688" fill="url(#linear-gradient)"/>
        <path id="形状结合" d="M42,45.5A3.5,3.5,0,1,1,45.5,49,3.5,3.5,0,0,1,42,45.5Zm-14,0A3.5,3.5,0,1,1,31.5,49,3.5,3.5,0,0,1,28,45.5Zm-14,0A3.5,3.5,0,1,1,17.5,49,3.5,3.5,0,0,1,14,45.5Zm-14,0A3.5,3.5,0,1,1,3.5,49,3.5,3.5,0,0,1,0,45.5Zm42-14A3.5,3.5,0,1,1,45.5,35,3.5,3.5,0,0,1,42,31.5Zm-14,0A3.5,3.5,0,1,1,31.5,35,3.5,3.5,0,0,1,28,31.5Zm-14,0A3.5,3.5,0,1,1,17.5,35,3.5,3.5,0,0,1,14,31.5Zm-14,0A3.5,3.5,0,1,1,3.5,35,3.5,3.5,0,0,1,0,31.5Zm42-14A3.5,3.5,0,1,1,45.5,21,3.5,3.5,0,0,1,42,17.5Zm-14,0A3.5,3.5,0,1,1,31.5,21,3.5,3.5,0,0,1,28,17.5Zm-14,0A3.5,3.5,0,1,1,17.5,21,3.5,3.5,0,0,1,14,17.5Zm-14,0A3.5,3.5,0,1,1,3.5,21,3.5,3.5,0,0,1,0,17.5Zm42-14A3.5,3.5,0,1,1,45.5,7,3.5,3.5,0,0,1,42,3.5Zm-14,0A3.5,3.5,0,1,1,31.5,7,3.5,3.5,0,0,1,28,3.5Zm-14,0A3.5,3.5,0,1,1,17.5,7,3.5,3.5,0,0,1,14,3.5ZM0,3.5A3.5,3.5,0,1,1,3.5,7,3.5,3.5,0,0,1,0,3.5Z" transform="translate(-18946 -19587)" fill="url(#linear-gradient-4)"/>
        <path id="形状结合备份" d="M42,45.5A3.5,3.5,0,1,1,45.5,49,3.5,3.5,0,0,1,42,45.5Zm-14,0A3.5,3.5,0,1,1,31.5,49,3.5,3.5,0,0,1,28,45.5Zm-14,0A3.5,3.5,0,1,1,17.5,49,3.5,3.5,0,0,1,14,45.5Zm-14,0A3.5,3.5,0,1,1,3.5,49,3.5,3.5,0,0,1,0,45.5Zm42-14A3.5,3.5,0,1,1,45.5,35,3.5,3.5,0,0,1,42,31.5Zm-14,0A3.5,3.5,0,1,1,31.5,35,3.5,3.5,0,0,1,28,31.5Zm-14,0A3.5,3.5,0,1,1,17.5,35,3.5,3.5,0,0,1,14,31.5Zm-14,0A3.5,3.5,0,1,1,3.5,35,3.5,3.5,0,0,1,0,31.5Zm42-14A3.5,3.5,0,1,1,45.5,21,3.5,3.5,0,0,1,42,17.5Zm-14,0A3.5,3.5,0,1,1,31.5,21,3.5,3.5,0,0,1,28,17.5Zm-14,0A3.5,3.5,0,1,1,17.5,21,3.5,3.5,0,0,1,14,17.5Zm-14,0A3.5,3.5,0,1,1,3.5,21,3.5,3.5,0,0,1,0,17.5Zm42-14A3.5,3.5,0,1,1,45.5,7,3.5,3.5,0,0,1,42,3.5Zm-14,0A3.5,3.5,0,1,1,31.5,7,3.5,3.5,0,0,1,28,3.5Zm-14,0A3.5,3.5,0,1,1,17.5,7,3.5,3.5,0,0,1,14,3.5ZM0,3.5A3.5,3.5,0,1,1,3.5,7,3.5,3.5,0,0,1,0,3.5Z" transform="translate(-18079 -19590)" fill="url(#linear-gradient-5)"/>
      </g>
      <g id="组_404" data-name="组 404" transform="translate(-18994.523 -19738.268)">
        <path id="路径_170" data-name="路径 170" d="M746.9,242.185c-43.326.2-86.66.47-129.977-.18-9.978-.15-14.3,3.257-17.532,12.2-16.276,45.075-33.056,89.968-49.757,134.888-6.955,18.709-14.151,37.328-22.081,58.207-2.91-13.746-5.227-24.7-7.545-35.644-3.1-.463-5.181-3.106-8.163-3.778-4.818-2.705-10.118-3.9-15.527-4.645-41.834-5.769-82.831.841-123.748,8.462a11.668,11.668,0,0,0-7.835,4.631c.108.879.2,1.762.286,2.646L381.3,500.608h0l2.287,11.259c1.8,5.9,5.4,7.806,11.857,7.678,20.958-.414,41.934.061,62.9.193h42.264c-.984,0-5.707,16.348-6.324,18.1-2.221,6.3-4.488,12.581-6.9,18.81-1.972,5.091-4.158,10.078-6.308,15.089-2,4.659-3.77,9.587-8.081,12.657-3.278,2.333-7.435,3.091-11.458,3.167-24.357.454-48.733-.691-73.078-.636-8,.019-12,5.746-14.615,12.564-14.632,38.156-28.27,76.684-42.366,115.039-2.228,6.062-9.1,15.97,1.88,15.821,53.438-.727,106.978,2.258,160.286-3.057,33.772-3.368,63.149-16.185,84.871-43.762,15.605-19.811,27.425-41.792,36.757-64.925,48.978-121.416,92.056-245.063,138.482-367.446C756.873,242.945,753.976,242.152,746.9,242.185Z" transform="translate(-15.66)" fill="#fff"/>
        <g id="组_403" data-name="组 403" transform="translate(341.931 383.584)">
          <path id="路径_171" data-name="路径 171" d="M362.37,405.482l-.3,0c.038.222.075.445.113.667Z" transform="translate(-362.067 -404.636)" fill="#dbdbdb"/>
          <path id="路径_172" data-name="路径 172" d="M479.136,407.114c-38.73-4.02-77.613-2.334-116.451-1.762l6.011,30.136c.2.586.381,1.177.593,1.761,11.841-2,23.64-4.3,35.529-5.94,38.493-5.316,77.029-11.23,115.342,1.214C511.355,416.2,496.518,408.919,479.136,407.114Z" transform="translate(-362.147 -404.511)" fill="#dbdbdb"/>
        </g>
        <path id="路径_173" data-name="路径 173" d="M477.976,300.419c-10.891-33.628-33.225-55.857-69.256-56.827-64.767-1.744-129.61-.632-194.421-.9-5.94-.024-8.548,1.789-8.433,7.92.193,10.142-.347,20.3-.094,30.438,1.1,44.317,26.315,78.6,68.221,93.951,22.046,8.08,44.9,9.141,67.938,9.51,39.017-.565,78.079-2.285,116.989,1.753,15.531,1.612,30.9,8.781,39.252,22.459,1.142,1.87,4.306,6.877,6.174,3C495.763,374.573,489.757,336.8,477.976,300.419Z" transform="translate(0 -0.075)" fill="url(#linear-gradient-6)"/>
      </g>
    </g>
    <g id="组_407" data-name="组 407" transform="translate(-20154.859 -19671.254)">
      <g id="组_406" data-name="组 406">
        <g id="组_405" data-name="组 405" clip-path="url(#clip-path-2)">
          <ellipse id="椭圆_27" data-name="椭圆 27" cx="651.199" cy="245.416" rx="651.199" ry="245.416" transform="translate(2258.66 759.586)" fill="#fff" opacity="0.4"/>
        </g>
      </g>
      <path id="路径_174" data-name="路径 174" d="M3421.859,873.81c-115.153-62.122-301.592-102.49-512-102.49s-396.848,40.368-512,102.49v150.443h1024Z" fill="#fff"/>
    </g>
    <text id="Yosee" transform="translate(-16947 -18708)" fill="#11c6be" font-size="140" font-family="HelloFont-WenYiHei, HelloFont WenYiHei" letter-spacing="0.1em"><tspan x="-596.4" y="0">YOSEE</tspan></text>
  </g>
</svg>
